<svg width="20" height="20" viewBox="0 0 20 20" fill="none" xmlns="http://www.w3.org/2000/svg">
<rect width="20" height="20" rx="10" fill="#F2BC1B"/>
<path d="M11.0108 11.54C11.0108 11.6129 10.9835 11.677 10.9433 11.7221V11.3286C10.9657 11.3377 10.9812 11.3449 10.9928 11.3511C10.9996 11.3742 11.0108 11.4295 11.0108 11.54ZM10.9878 11.3374C10.9878 11.3374 10.9882 11.338 10.9888 11.3394C10.9881 11.3382 10.9878 11.3375 10.9878 11.3374Z" fill="white" stroke="white"/>
<path d="M4.66678 9.95731C4.65612 7.01441 7.03952 4.61919 9.98399 4.60828C12.9284 4.6032 15.3228 6.98224 15.3335 9.92593C15.3441 12.869 12.9605 15.2643 10.0158 15.275C7.07276 15.2856 4.67745 12.902 4.66678 9.95731ZM12.886 11.54C12.886 10.9113 12.6978 10.4422 12.3955 10.1041C12.1043 9.77853 11.7462 9.61914 11.4845 9.52832L10.9376 9.33275V8.3888C10.9789 8.45447 11.0051 8.53726 11.0051 8.63495C11.0051 9.15026 11.4273 9.57245 11.9426 9.57245C12.4579 9.57245 12.8801 9.15026 12.8801 8.63495C12.8801 7.47915 12.0406 6.4978 10.9265 6.3559C10.8566 5.90824 10.4665 5.56245 10.0001 5.56245C9.53893 5.56245 9.15232 5.90063 9.07621 6.34107C7.97358 6.39847 7.11429 7.33606 7.11429 8.45995C7.11429 9.08856 7.30239 9.55775 7.60473 9.89578C7.89594 10.2214 8.25401 10.3808 8.51574 10.4716L9.06262 10.6672V11.6111C9.02135 11.5454 8.99512 11.4626 8.99512 11.365C8.99512 10.8496 8.57293 10.4275 8.05762 10.4275C7.54231 10.4275 7.12012 10.8496 7.12012 11.365C7.12012 12.5208 7.95965 13.5021 9.07377 13.644C9.14367 14.0917 9.53376 14.4375 10.0001 14.4375C10.4613 14.4375 10.8479 14.0993 10.924 13.6588C12.0267 13.6014 12.886 12.6638 12.886 11.54Z" fill="white" stroke="white"/>
<path d="M8.99512 8.46588C8.99512 8.37802 9.02489 8.31598 9.06262 8.27538V8.67723C9.0402 8.66818 9.02473 8.66099 9.0131 8.65473C9.00633 8.63168 8.99512 8.57641 8.99512 8.46588ZM9.01813 8.66842C9.0181 8.66845 9.01776 8.66784 9.01716 8.66647C9.01786 8.66769 9.01815 8.66838 9.01813 8.66842Z" fill="white" stroke="white"/>
</svg>
