<svg width="90" height="70" viewBox="0 0 90 70" fill="none" xmlns="http://www.w3.org/2000/svg">
<g clip-path="url(#clip0_2001_2178)">
<path fill-rule="evenodd" clip-rule="evenodd" d="M12.8192 10.4536V9.88331C14.3842 9.84117 16.583 9.52793 17.8914 7.77632C18.7392 6.63573 19.1701 4.78438 18.4372 3.06227C18.0927 2.27846 17.3173 0.826044 15.0463 0.983366C12.5881 1.15333 11.1223 1.93713 11.1223 1.93713L10.9479 1.39493L11.1634 1.26851C11.1634 1.26851 12.615 0.512804 15.1739 0.369528C17.5895 0.227657 18.725 2.079 19.1134 2.97799C19.7882 4.4866 19.4154 6.97987 18.4089 8.17524C16.7857 10.0856 14.7301 10.3974 12.9468 10.455L12.8192 10.4536ZM25.093 5.2704L25.3793 5.17067L25.7111 8.98714L25.3949 9.04332L25.093 5.2704Z" fill="black"/>
<path d="M25.093 5.27038L25.3793 5.17065L25.7111 8.98712L25.3949 9.0433L25.093 5.27038Z" fill="black"/>
<path d="M25.3227 9.12882L25.0208 5.22666L25.4234 5.06934L25.7679 9.04454L25.3227 9.12882ZM25.1781 5.31235L25.4517 8.95745L25.6389 8.92936L25.3227 5.25476L25.1781 5.31094V5.31235Z" fill="black"/>
<path fill-rule="evenodd" clip-rule="evenodd" d="M25.4219 9.4577V9.17255C26.1987 9.14446 27.2634 9.00118 27.9098 8.1331C28.3266 7.57685 28.5421 6.66523 28.1678 5.82524C27.9963 5.44036 27.622 4.7296 26.5007 4.81388C25.2943 4.89957 24.5755 5.28444 24.5755 5.28444L24.4891 5.02739L24.5883 4.9712C24.5883 4.9712 25.2943 4.60037 26.5446 4.52874C27.7369 4.4585 28.2841 5.37013 28.4854 5.81119C28.8157 6.55145 28.6427 7.76227 28.1395 8.36066C27.3484 9.30038 26.3433 9.45629 25.4658 9.47034L25.4233 9.45629L25.4219 9.4577Z" fill="black"/>
<path d="M25.4219 9.4577V9.17255C26.1987 9.14446 27.2634 9.00118 27.9098 8.1331C28.3266 7.57685 28.5421 6.66523 28.1678 5.82524C27.9963 5.44036 27.622 4.7296 26.5007 4.81388C25.2943 4.89957 24.5755 5.28444 24.5755 5.28444L24.4891 5.02739L24.5883 4.9712C24.5883 4.9712 25.2943 4.60037 26.5446 4.52874C27.7369 4.4585 28.2841 5.37013 28.4854 5.81119C28.8157 6.55145 28.6427 7.76227 28.1395 8.36066C27.3484 9.30038 26.3433 9.45629 25.4658 9.47034L25.4233 9.45629L25.4219 9.4577Z" fill="black"/>
<path d="M25.4786 9.55591H25.334V9.1022H25.4205C26.5702 9.07411 27.3612 8.74541 27.8361 8.10489C28.1947 7.63573 28.4684 6.76624 28.0941 5.88271C27.9211 5.46974 27.5767 4.9149 26.685 4.9149H26.5276C25.3496 4.99918 24.6308 5.37001 24.6308 5.37001L24.5444 5.4276L24.3998 5.00058L24.5727 4.90085C24.6011 4.8868 25.3056 4.51597 26.5716 4.45979C27.8361 4.3741 28.4102 5.37001 28.5974 5.78438C28.9418 6.53869 28.7547 7.79305 28.2387 8.41813C27.4037 9.3733 26.3688 9.52781 25.4786 9.55591ZM25.5069 9.27216V9.38454C26.3547 9.35644 27.3187 9.20053 28.0799 8.30295C28.569 7.73406 28.7264 6.55133 28.4102 5.85321C28.2089 5.3981 27.7057 4.62835 26.6864 4.62835H26.5701C25.3496 4.69998 24.6592 5.05536 24.645 5.05536L24.6025 5.08346L24.6308 5.18459C24.8605 5.08486 25.5211 4.82781 26.4993 4.75758C27.7496 4.67189 28.1366 5.55402 28.2529 5.82512C28.6541 6.76624 28.3521 7.70456 27.9793 8.21726C27.476 8.87324 26.6708 9.21598 25.5069 9.27216Z" fill="black"/>
<path fill-rule="evenodd" clip-rule="evenodd" d="M21.2824 8.94342C20.85 8.94342 20.9365 8.65968 20.9365 8.65968L21.0513 6.99234L23.0502 6.87997L23.036 6.63696L21.0797 6.72124L21.1959 5.08481L23.596 4.98508L23.5818 4.72803L20.7352 4.81371L20.7068 5.09886L20.9507 5.08481L20.6487 8.67373C20.592 9.20048 21.2526 9.22857 21.2526 9.22857L23.596 9.10074L23.5818 8.85774L21.2824 8.94342Z" fill="black"/>
<path d="M21.2824 8.94342C20.85 8.94342 20.9365 8.65968 20.9365 8.65968L21.0513 6.99234L23.0502 6.87997L23.036 6.63696L21.0797 6.72124L21.1959 5.08481L23.596 4.98508L23.5818 4.72803L20.7352 4.81371L20.7068 5.09886L20.9507 5.08481L20.6487 8.67373C20.592 9.20048 21.2526 9.22857 21.2526 9.22857L23.596 9.10074L23.5818 8.85774L21.2824 8.94342Z" fill="black"/>
<path d="M21.2569 9.31432C21.2427 9.31432 20.8826 9.30028 20.6813 9.07272C20.5807 8.95894 20.5523 8.82971 20.5665 8.65975L20.8543 5.17057L20.609 5.18461L20.6516 4.71405L23.6711 4.61572L23.6995 5.04134H23.6144L21.2994 5.14107L21.1988 6.59349L23.1395 6.52326L23.1678 6.95027L21.1548 7.06405L21.0414 8.65975C21.0414 8.6738 21.0272 8.72998 21.0556 8.77212C21.0839 8.81567 21.169 8.84376 21.2852 8.84376L23.6711 8.75948L23.6995 9.1865L21.2569 9.31432ZM21.04 4.9992L20.738 8.68784C20.7239 8.80162 20.7522 8.88731 20.8103 8.97299C20.9252 9.11486 21.1704 9.14295 21.2569 9.157L23.5123 9.04463V8.97299L21.2994 9.05727C21.1123 9.05727 20.9833 9.01513 20.911 8.9168C20.8259 8.80162 20.8543 8.6738 20.8685 8.65975L20.9975 6.93623L22.9821 6.82245V6.75081L21.0116 6.83509L21.1406 5.02729L23.5265 4.92896V4.85733L20.8387 4.94161L20.8245 5.05538L21.04 4.9992Z" fill="black"/>
<path fill-rule="evenodd" clip-rule="evenodd" d="M41.7216 4.51465C40.4415 4.51465 39.4067 5.59624 39.4067 6.93488C39.4067 8.27493 40.4415 9.35652 41.7216 9.35652C43.0003 9.35652 44.0352 8.27493 44.0352 6.93488C44.0352 5.59624 43.0003 4.51465 41.7216 4.51465ZM41.7216 9.05733C40.6003 9.05733 39.6944 8.11761 39.6944 6.95033C39.6944 5.78165 40.6003 4.84334 41.7216 4.84334C42.8416 4.84334 43.7488 5.78165 43.7488 6.95033C43.7488 8.11761 42.8416 9.05733 41.7216 9.05733Z" fill="black"/>
<path d="M41.7216 4.51465C40.4415 4.51465 39.4067 5.59624 39.4067 6.93488C39.4067 8.27493 40.4415 9.35652 41.7216 9.35652C43.0003 9.35652 44.0352 8.27493 44.0352 6.93488C44.0352 5.59624 43.0003 4.51465 41.7216 4.51465ZM41.7216 9.05733C40.6003 9.05733 39.6944 8.11761 39.6944 6.95033C39.6944 5.78165 40.6003 4.84334 41.7216 4.84334C42.8416 4.84334 43.7488 5.78165 43.7488 6.95033C43.7488 8.11761 42.8416 9.05733 41.7216 9.05733Z" fill="black"/>
<path d="M41.7217 9.42663C40.4005 9.42663 39.3075 8.30291 39.3075 6.92072C39.3075 5.53993 40.3849 4.41479 41.7217 4.41479C43.0444 4.41479 44.1374 5.53853 44.1374 6.92072C44.1374 8.31695 43.0458 9.42663 41.7217 9.42663ZM41.7217 4.5988C40.4856 4.5988 39.4946 5.63826 39.4946 6.93476C39.4946 8.21722 40.5012 9.25667 41.7217 9.25667C42.9579 9.25667 43.9502 8.21722 43.9502 6.93476C43.9502 5.63966 42.9579 4.5988 41.7217 4.5988ZM41.7217 9.14289C40.5593 9.14289 39.6095 8.15963 39.6095 6.93476C39.6095 5.72394 40.5593 4.74207 41.7217 4.74207C42.887 4.74207 43.834 5.72535 43.834 6.93476C43.834 8.15963 42.887 9.14289 41.7217 9.14289ZM41.7217 4.9275C40.6585 4.9275 39.7824 5.83772 39.7824 6.95021C39.7824 8.07395 40.6585 8.97153 41.7217 8.97153C42.785 8.97153 43.6639 8.0599 43.6639 6.94881C43.6639 5.82508 42.785 4.9275 41.7217 4.9275Z" fill="black"/>
<path fill-rule="evenodd" clip-rule="evenodd" d="M47.0095 4.51465C45.7308 4.51465 44.6959 5.59624 44.6959 6.93488C44.6959 8.27493 45.7308 9.35652 47.0095 9.35652C48.2896 9.35652 49.3245 8.27493 49.3245 6.93488C49.3245 5.59624 48.2896 4.51465 47.0095 4.51465ZM47.0095 9.05733C45.8896 9.05733 44.9823 8.11761 44.9823 6.95033C44.9823 5.78165 45.8896 4.84334 47.0095 4.84334C48.1308 4.84334 49.0367 5.78165 49.0367 6.95033C49.0367 8.11761 48.1308 9.05733 47.0095 9.05733Z" fill="black"/>
<path d="M47.0095 4.51465C45.7308 4.51465 44.6959 5.59624 44.6959 6.93488C44.6959 8.27493 45.7308 9.35652 47.0095 9.35652C48.2896 9.35652 49.3245 8.27493 49.3245 6.93488C49.3245 5.59624 48.2896 4.51465 47.0095 4.51465ZM47.0095 9.05733C45.8896 9.05733 44.9823 8.11761 44.9823 6.95033C44.9823 5.78165 45.8896 4.84334 47.0095 4.84334C48.1308 4.84334 49.0367 5.78165 49.0367 6.95033C49.0367 8.11761 48.1308 9.05733 47.0095 9.05733Z" fill="black"/>
<path d="M47.0109 9.42677C45.6883 9.42677 44.5967 8.30304 44.5967 6.92085C44.5967 5.54006 45.6741 4.41493 47.0109 4.41493C48.3335 4.41493 49.4251 5.53866 49.4251 6.92085C49.4251 8.31708 48.3335 9.42677 47.0109 9.42677ZM47.0109 4.59894C45.7889 4.59894 44.7824 5.63839 44.7824 6.93489C44.7824 8.21735 45.7889 9.2568 47.0109 9.2568C48.2471 9.2568 49.238 8.21735 49.238 6.93489C49.238 5.63979 48.2457 4.59894 47.0109 4.59894ZM47.0109 9.14302C45.847 9.14302 44.8986 8.15976 44.8986 6.93489C44.8986 5.72407 45.847 4.74221 47.0109 4.74221C48.1748 4.74221 49.1232 5.72548 49.1232 6.93489C49.1232 8.15976 48.1748 9.14302 47.0109 9.14302ZM47.0109 4.92763C45.9477 4.92763 45.0702 5.83785 45.0702 6.95034C45.0702 8.07408 45.9477 8.97166 47.0109 8.97166C48.0741 8.97166 48.9516 8.06003 48.9516 6.94894C48.9516 5.82521 48.0741 4.92622 47.0095 4.92622L47.0109 4.92763ZM37.0181 0.939788L36.5162 1.35276C35.8258 0.826009 35.3382 0.626548 34.2735 0.782466C33.0671 0.96788 32.1754 1.6955 31.5715 2.67736C30.9534 3.66062 30.7961 4.77031 31.0825 5.96708C31.3702 7.1779 31.8877 8.43086 32.88 9.02925C33.8723 9.62763 34.8207 9.65573 36.0555 9.29894C36.8763 9.07139 37.6659 8.13167 37.8247 7.14981L38.4711 7.30432C38.3265 8.60223 37.3214 9.54195 36.2284 9.98301C34.8349 10.5379 33.6413 10.3384 32.449 9.62763C31.2554 8.92952 30.609 7.53469 30.2787 6.1525C29.9484 4.75626 30.178 3.47521 30.9535 2.30653C31.7303 1.13925 32.7794 0.28381 34.1729 0.0843473C35.2219 -0.056119 36.2554 0.141939 37.0181 0.939788Z" fill="black"/>
<path fill-rule="evenodd" clip-rule="evenodd" d="M51.4537 3.73212L51.7273 0.0153809L51.1376 0.0434742L50.4628 8.19052C50.3338 9.38589 51.8422 9.45753 51.8422 9.45753L55.9391 9.17238L55.8966 8.60209L51.9131 8.80155C50.9519 8.8156 51.1376 8.17507 51.1376 8.17507L51.4112 4.37265L51.4537 3.73212Z" fill="black"/>
<path d="M51.4537 3.73212L51.7273 0.0153809L51.1376 0.0434742L50.4628 8.19052C50.3338 9.38589 51.8422 9.45753 51.8422 9.45753L55.9391 9.17238L55.8966 8.60209L51.9131 8.80155C50.9519 8.8156 51.1376 8.17507 51.1376 8.17507L51.4112 4.37265L51.4537 3.73212Z" fill="black"/>
<path d="M51.8422 9.48569C51.828 9.48569 51.0653 9.44355 50.6627 8.98704C50.477 8.77353 50.4047 8.51647 50.4331 8.18919L51.1093 0.0280933H51.1234L51.7273 0V0.0140466L51.1376 8.16109C51.1376 8.16109 51.0809 8.3746 51.2085 8.54457C51.3247 8.70189 51.5544 8.77353 51.8847 8.77353H51.8989L55.9093 8.57407L55.9519 9.17105H55.9377L51.8422 9.48569ZM51.1518 0.0702332L50.477 8.20183C50.4487 8.50102 50.5195 8.77212 50.6925 8.97159C51.0653 9.41265 51.7982 9.45479 51.8408 9.45479L55.9093 9.16964L55.881 8.64289L51.8989 8.84236C51.5544 8.84236 51.3106 8.75808 51.1943 8.60075C51.0511 8.41534 51.1234 8.20183 51.1234 8.18778L51.7118 0.0547819L51.1518 0.0688285V0.0702332ZM1.43422 13.5016H0.5V60.6421H1.43422V13.5016ZM3.29981 13.5016H2.3656V60.6421H3.30123L3.29981 13.5016ZM7.98932 13.5016H6.12089V60.6421H7.98932V13.5016ZM9.85633 13.5016H8.92212V60.6421H9.85775L9.85633 13.5016ZM12.676 13.4876H11.8127V60.5972H12.676V13.4862V13.4876ZM16.4114 13.4876H14.6153V60.5972H16.4114V13.4862V13.4876ZM19.2311 13.4876H17.2889V60.5972H19.2311V13.4862V13.4876ZM22.9807 13.4876H20.0916V60.5972H22.9807V13.4862V13.4876ZM24.8477 13.4876H23.9121V60.5972H24.8477V13.4862V13.4876ZM29.5472 13.4876H25.7961V60.5972H29.5472V13.4862V13.4876ZM33.2727 13.4876H30.3977V60.5972H33.2727V13.4862V13.4876ZM36.0867 13.4876H34.1459V60.5972H36.0881V13.4862L36.0867 13.4876ZM38.9078 13.4876H38.0444V60.5972H38.9078V13.4862V13.4876ZM42.6432 13.4876H40.8471V60.5972H42.6432V13.4862V13.4876ZM44.523 13.5016H43.5873V60.8992H44.523V13.5002V13.5016ZM46.3942 13.5016H45.4586V60.8992H46.3942V13.5002V13.5016ZM50.1595 13.4876H47.3426V60.5972H50.1595V13.4862V13.4876ZM52.9621 13.4876H52.0265V60.5972H52.9621V13.4862V13.4876ZM55.8342 13.4876H53.8935V60.5972H55.8342V13.4862V13.4876ZM59.5881 13.4876H57.6488V60.5972H59.5881V13.4862V13.4876ZM62.3907 13.4876H60.45V60.5972H62.3907V13.4862V13.4876ZM66.1446 13.4876H64.2053V60.5972H66.1446V13.4862V13.4876ZM67.9507 13.4876H67.0179V60.5972H67.9521V13.4862L67.9507 13.4876ZM72.626 13.4876H71.6904V60.5972H72.626V13.4862V13.4876ZM75.5151 13.4876H73.573V60.5972H75.5151V13.4862V13.4876ZM78.3163 13.4876H76.3756V60.5972H78.3178V13.4862L78.3163 13.4876ZM82.066 13.4876H80.1252V60.3991H82.066V13.4876ZM84.8842 13.4876H82.9435V60.3991H84.8842V13.4876ZM87.616 13.4876H86.6818V60.3991H87.616V13.4876ZM89.4986 13.4876H88.5644V60.3991H89.5L89.4986 13.4876ZM12.1727 1.89349L12.7483 9.59947L13.4089 9.48429L12.7341 1.67998L12.1727 1.89349Z" fill="black"/>
<path d="M15.1583 0.384915C12.5994 0.526786 11.1478 1.2825 11.1478 1.2825L10.9323 1.41032L11.1053 1.95112C11.1053 1.95112 12.5853 1.16872 15.0293 0.997347C17.3145 0.841429 18.0913 2.27981 18.4216 3.07625C19.1545 4.78573 18.7236 6.63707 17.8758 7.7903C16.5674 9.55737 14.3686 9.85516 12.8007 9.8973V10.4676H12.917C14.6989 10.4114 16.7545 10.0981 18.3777 8.18923C19.3984 6.99386 19.7585 4.50058 19.0822 2.99197C18.708 2.09299 17.5881 0.243044 15.1583 0.384915ZM26.5602 4.4444C25.2943 4.51463 24.5897 4.87141 24.5614 4.88546L24.3898 4.98519L24.533 5.41221L24.6181 5.35602C24.6181 5.35602 24.835 5.24224 25.2078 5.14251L25.0221 5.21275L25.3241 9.1149H25.3382V9.54332H25.4814C26.3731 9.51523 27.408 9.35791 28.2274 8.40274C28.759 7.7903 28.9305 6.5233 28.586 5.76899C28.3989 5.35602 27.8262 4.35871 26.5602 4.4444ZM25.4531 8.95898L25.178 5.31248L25.3241 5.25629L25.6402 8.93089L25.4531 8.95898ZM25.4389 5.09897C25.7408 5.02874 26.0853 4.94305 26.5163 4.91355H26.6751C27.5653 4.91355 27.9112 5.4698 28.0828 5.88277C28.457 6.7649 28.1833 7.62034 27.8246 8.10495C27.3795 8.71738 26.6311 9.03062 25.5679 9.08821L25.7834 9.04467L25.4389 5.09897ZM28.0828 8.28896C27.3215 9.18794 26.3589 9.34246 25.5098 9.37055V9.25818C26.6751 9.21604 27.4803 8.85925 27.9821 8.19063C28.3564 7.67653 28.6582 6.73681 28.2556 5.79709C28.1266 5.51194 27.7524 4.64386 26.5021 4.72954C25.5239 4.79978 24.8775 5.05683 24.6337 5.15656L24.6053 5.05683L24.6478 5.02874C24.662 5.02874 25.3524 4.67195 26.5744 4.60031H26.6878C27.7085 4.60031 28.2132 5.37007 28.4145 5.82518C28.7306 6.53734 28.5718 7.73412 28.0828 8.28896ZM23.5974 5.05683H23.6824L23.6541 4.62841L20.6345 4.72673L20.592 5.19729L20.8373 5.18325L20.5495 8.67243C20.5353 8.82975 20.5637 8.97163 20.6643 9.0854C20.8656 9.31436 21.2257 9.32841 21.2399 9.32841L23.6824 9.20059L23.6541 8.77216L21.2682 8.85785C21.1534 8.85785 21.0669 8.82975 21.0386 8.78761C21.0102 8.74547 21.0244 8.68648 21.0244 8.67243L21.1378 7.07814L23.1508 6.96436L23.1225 6.53734L21.1818 6.60758L21.2824 5.15516L23.5974 5.05683ZM22.9637 6.72135V6.79299L20.9804 6.90677L20.8514 8.63029C20.8514 8.64434 20.8089 8.77216 20.894 8.88594C20.9663 8.97163 21.0953 9.02922 21.2824 9.02922L23.4953 8.94353V9.01377L21.2399 9.13035C21.1534 9.13035 20.9237 9.08821 20.7933 8.94494C20.7366 8.8747 20.7083 8.78761 20.7224 8.65979L21.0244 4.97114L20.7791 4.98519L20.7933 4.87282L23.4811 4.78573V4.85737L21.0953 4.9571L20.9677 6.7663L22.9637 6.72416V6.72135ZM41.7216 4.42894C40.4004 4.42894 39.3074 5.55408 39.3074 6.93627C39.3074 8.31705 40.3848 9.44219 41.7216 9.44219C43.0443 9.44219 44.1374 8.31846 44.1374 6.93627C44.1374 5.55408 43.0457 4.42894 41.7216 4.42894ZM41.7216 9.25677C40.4855 9.25677 39.4945 8.21732 39.4945 6.93627C39.4945 5.65381 40.5011 4.60031 41.7216 4.60031C42.9578 4.60031 43.9502 5.63976 43.9502 6.93627C43.9502 8.21732 42.9578 9.25677 41.7216 9.25677Z" fill="black"/>
<path d="M41.7189 4.74361C40.5564 4.74361 39.6066 5.72687 39.6066 6.93629C39.6066 8.14711 40.5564 9.14441 41.7189 9.14441C42.8842 9.14441 43.8312 8.16115 43.8312 6.93629C43.8312 5.72687 42.8842 4.74361 41.7189 4.74361ZM41.7189 8.97305C40.6557 8.97305 39.7796 8.06142 39.7796 6.95033C39.7796 5.84065 40.6557 4.92762 41.7189 4.92762C42.7821 4.92762 43.6611 5.84065 43.6611 6.95033C43.6611 8.06142 42.7821 8.97305 41.7189 8.97305ZM47.0109 4.42896C45.6883 4.42896 44.5967 5.5541 44.5967 6.93629C44.5967 8.31707 45.6741 9.44221 47.0109 9.44221C48.3335 9.44221 49.4251 8.31848 49.4251 6.93629C49.4251 5.5541 48.3335 4.42896 47.0109 4.42896ZM47.0109 9.25679C45.7889 9.25679 44.7824 8.21734 44.7824 6.93629C44.7824 5.65383 45.7889 4.60033 47.0109 4.60033C48.2471 4.60033 49.238 5.63978 49.238 6.93629C49.238 8.21734 48.2457 9.25679 47.0109 9.25679Z" fill="black"/>
<path d="M47.0081 4.74353C45.8442 4.74353 44.8958 5.72679 44.8958 6.93621C44.8958 8.14703 45.8442 9.14434 47.0081 9.14434C48.1719 9.14434 49.1203 8.16107 49.1203 6.93621C49.1203 5.72679 48.1719 4.74353 47.0081 4.74353ZM47.0081 8.97297C45.9448 8.97297 45.0673 8.06134 45.0673 6.95025C45.0673 5.84057 45.9448 4.92754 47.0081 4.92754C48.0713 4.92754 48.9488 5.84057 48.9488 6.95025C48.9488 8.06134 48.0727 8.97297 47.0081 8.97297ZM36.0257 9.3143C34.7895 9.67109 33.8412 9.64159 32.8502 9.0432C31.8579 8.44622 31.3405 7.19186 31.0527 5.98104C30.7649 4.77162 30.9379 3.67458 31.5418 2.69132C32.1598 1.694 33.0501 0.983247 34.2438 0.797832C35.307 0.64051 35.7961 0.839972 36.485 1.36812L36.9897 0.955154C36.2284 0.157305 35.1936 -0.0562036 34.1303 0.099714C32.7354 0.299176 31.6722 1.15321 30.9109 2.32189C30.1341 3.48916 29.9186 4.77162 30.2347 6.16645C30.565 7.54864 31.2129 8.94347 32.4037 9.64159C33.5973 10.3397 34.791 10.5546 36.1845 9.99837C37.2619 9.57136 38.2826 8.63023 38.4272 7.32109L37.7807 7.16376C37.6361 8.14703 36.8451 9.08675 36.0271 9.3143H36.0257ZM55.9093 8.60214L51.8989 8.8016H51.8847C51.5544 8.8016 51.3247 8.73137 51.2099 8.57405C51.0795 8.40268 51.1376 8.18917 51.1376 8.18917L51.7273 0.0421228V0.0280762L51.1234 0.0561694H51.1093L50.4331 8.21726C50.4047 8.5305 50.4756 8.8016 50.6627 9.01511C51.0511 9.47163 51.828 9.51377 51.828 9.51377L55.9249 9.22862H55.9391L55.9093 8.60214ZM51.8408 9.45477C51.8124 9.45477 51.0795 9.41263 50.6925 8.97157C50.5195 8.7721 50.4472 8.51505 50.477 8.20181L51.1518 0.0702161L51.6976 0.0421228L51.1093 8.17512C51.1093 8.18917 51.037 8.40268 51.1801 8.58809C51.3106 8.74541 51.5402 8.82969 51.8847 8.82969L55.8668 8.63023L55.8952 9.15839L51.8408 9.45477ZM12.7284 1.67996L12.1671 1.89347L12.7426 9.59945L13.4032 9.48427L12.7284 1.67996ZM13.8512 64.8294H14.4551V68.7751H16.6383V69.2878H13.8526L13.8512 64.8294ZM19.93 64.7578C20.5622 64.7578 21.0655 64.9727 21.4398 65.3857C21.8126 65.7987 21.9997 66.3689 21.9997 67.0657C21.9997 67.7638 21.8126 68.3327 21.4398 68.7456C21.0655 69.1586 20.5622 69.3735 19.93 69.3735C19.2977 69.3735 18.7959 69.1586 18.4216 68.7456C18.0474 68.3327 17.8603 67.7624 17.8603 67.0657C17.8603 66.3675 18.0474 65.7987 18.4216 65.3857C18.7945 64.9587 19.2977 64.7578 19.93 64.7578ZM19.93 65.2424C19.4849 65.2424 19.1404 65.3997 18.8809 65.727C18.6229 66.0543 18.4925 66.4954 18.4925 67.0657C18.4925 67.6219 18.6215 68.063 18.8809 68.3903C19.1404 68.7175 19.4849 68.8749 19.93 68.8749C20.3751 68.8749 20.721 68.7175 20.979 68.3903C21.2385 68.063 21.3675 67.6219 21.3675 67.0657C21.3675 66.5108 21.2385 66.0543 20.979 65.727C20.721 65.4138 20.3751 65.2424 19.93 65.2424ZM26.7318 64.9854V65.5697C26.5007 65.4559 26.2852 65.3843 26.0839 65.3281C25.8826 65.2705 25.6813 65.2424 25.4956 65.2424C25.1639 65.2424 24.9059 65.2986 24.7329 65.4264C24.5614 65.5556 24.4607 65.7397 24.4607 65.9686C24.4607 66.1681 24.5174 66.3099 24.6323 66.4097C24.7471 66.5094 24.9782 66.5951 25.3085 66.6513L25.6827 66.7229C26.142 66.8072 26.4723 66.9645 26.6892 67.1794C26.9033 67.3929 27.0181 67.6767 27.0181 68.0475C27.0181 68.4745 26.8749 68.8018 26.5872 69.0308C26.2994 69.2583 25.8684 69.3581 25.3085 69.3581C25.093 69.3581 24.8633 69.33 24.6323 69.2878C24.3884 69.2443 24.1446 69.1727 23.8852 69.0729V68.4605C24.1304 68.6024 24.3742 68.7021 24.6039 68.7737C24.8336 68.844 25.0788 68.8735 25.3085 68.8735C25.6529 68.8735 25.9265 68.8032 26.1137 68.674C26.2994 68.5462 26.4 68.3467 26.4 68.0897C26.4 67.8761 26.3292 67.7062 26.1987 67.577C26.0711 67.4505 25.8401 67.3634 25.5381 67.3073L25.1639 67.237C24.7046 67.1499 24.3884 67.0081 24.1871 66.8086C23.9858 66.6232 23.8852 66.3521 23.8852 66.0107C23.8852 65.6118 24.0298 65.3126 24.3019 65.0851C24.5897 64.8575 24.9626 64.7437 25.4516 64.7437C25.6671 64.7437 25.8826 64.7578 26.0995 64.7999C26.271 64.8421 26.5007 64.8997 26.7318 64.9854ZM33.1961 64.828H33.8865L35.5976 69.2724H34.9639L34.5613 68.1332H32.5341L32.1187 69.271H31.4723L33.1961 64.828ZM33.542 65.4264L32.7226 67.6345H34.3756L33.542 65.4264ZM38.1422 64.828L40.1269 68.5462V64.828H40.7152V69.2724H39.8958L37.897 65.5542V69.2724H37.3087V64.828H38.1422ZM46.0611 68.6459V67.4491H45.0688V66.9505H46.665V68.8594C46.4353 69.0308 46.1759 69.1446 45.8881 69.2302C45.6004 69.3145 45.2998 69.3567 44.9823 69.3567C44.2791 69.3567 43.7334 69.1586 43.3307 68.7456C42.9423 68.3327 42.741 67.7764 42.741 67.0502C42.741 66.324 42.9423 65.7551 43.3307 65.3562C43.7334 64.9432 44.2791 64.7437 44.9823 64.7437C45.2701 64.7437 45.5578 64.7859 45.8173 64.8561C46.0753 64.9292 46.3205 65.0289 46.5502 65.1708V65.8113C46.3191 65.6259 46.0894 65.484 45.8314 65.3843C45.572 65.2859 45.314 65.2424 45.0404 65.2424C44.4946 65.2424 44.0764 65.3983 43.8042 65.6975C43.5321 65.9967 43.3875 66.4532 43.3875 67.0502C43.3875 67.6486 43.5321 68.1037 43.8042 68.4029C44.0778 68.7021 44.4946 68.8594 45.0404 68.8594C45.2559 68.8594 45.443 68.8454 45.616 68.8032C45.7875 68.7892 45.9321 68.7316 46.0611 68.6459ZM48.8481 64.828H51.6806V65.3407H49.4506V66.6513H51.5927V67.164H49.4521V68.7737H51.7359V69.2864H48.8467L48.8481 64.828ZM53.8098 64.828H54.4137V68.7737H56.5983V69.2864H53.8098V64.828ZM58.325 64.828H61.1702V65.3407H58.9416V66.6513H61.0823V67.164H58.9416V68.7737H61.2269V69.2864H58.3392V64.828H58.325ZM65.966 64.9854V65.5697C65.7363 65.4559 65.5209 65.3843 65.3195 65.3281C65.1182 65.2705 64.9169 65.2424 64.7298 65.2424C64.3995 65.2424 64.1401 65.2986 63.9686 65.4264C63.7956 65.5556 63.6949 65.7397 63.6949 65.9686C63.6949 66.1681 63.7517 66.3099 63.8679 66.4097C63.9827 66.5094 64.2124 66.5951 64.5427 66.6513L64.9169 66.7229C65.3763 66.8072 65.708 66.9645 65.9235 67.1794C66.1389 67.3929 66.2538 67.6767 66.2538 68.0475C66.2538 68.4745 66.1092 68.8018 65.8086 69.0308C65.5209 69.2583 65.0899 69.3581 64.5285 69.3581C64.313 69.3581 64.0834 69.33 63.8537 69.2878C63.6085 69.2443 63.3646 69.1727 63.1066 69.0729V68.4605C63.3505 68.6024 63.5943 68.7021 63.824 68.7737C64.055 68.844 64.2989 68.8735 64.5143 68.8735C64.8588 68.8735 65.1324 68.8032 65.3195 68.674C65.5067 68.5462 65.6073 68.3467 65.6073 68.0897C65.6073 67.8761 65.535 67.7062 65.406 67.577C65.2614 67.4505 65.0459 67.3634 64.744 67.3073L64.3712 67.237C63.9104 67.1499 63.5943 67.0081 63.393 66.8086C63.1917 66.6232 63.091 66.3521 63.091 66.0107C63.091 65.6118 63.2356 65.3126 63.5078 65.0851C63.7956 64.8575 64.1699 64.7437 64.6589 64.7437C64.8744 64.7437 65.0899 64.7578 65.3054 64.7999C65.5209 64.8421 65.7505 64.8997 65.966 64.9854ZM71.4153 68.5335H72.0476V69.0448L71.5585 70H71.1715L71.4153 69.0448V68.5335ZM80.7121 65.1848V65.8267C80.5108 65.6413 80.2954 65.498 80.0657 65.3983C79.836 65.3 79.5922 65.2564 79.3328 65.2564C78.8154 65.2564 78.4269 65.4138 78.1547 65.727C77.8811 66.0403 77.738 66.4813 77.738 67.0797C77.738 67.6626 77.8811 68.1192 78.1547 68.4184C78.4269 68.7316 78.8154 68.8875 79.3328 68.8875C79.5908 68.8875 79.836 68.8454 80.0657 68.747C80.2954 68.6459 80.5108 68.504 80.7121 68.3186V68.9451C80.4967 69.087 80.2812 69.2021 80.0373 69.2724C79.7935 69.3426 79.5483 69.3862 79.2903 69.3862C78.614 69.3862 78.0824 69.1726 77.6798 68.7737C77.2914 68.3608 77.0901 67.8045 77.0901 67.0797C77.0901 66.3675 77.2772 65.7972 77.6798 65.3843C78.0683 64.9713 78.6155 64.7718 79.2903 64.7718C79.5624 64.7718 79.8077 64.814 80.0515 64.8716C80.2812 64.9278 80.5108 65.0429 80.7121 65.1848ZM83.9046 64.828H84.5936L86.3047 69.2724H85.6724L85.2556 68.1332H83.2284L82.8258 69.271H82.1794L83.9046 64.828ZM84.2491 65.4264L83.4311 67.6345H85.0841L84.2491 65.4264Z" fill="black"/>
</g>
<defs>
<clipPath id="clip0_2001_2178">
<rect width="89" height="70" fill="white" transform="translate(0.5)"/>
</clipPath>
</defs>
</svg>
