<svg width="260" height="32" viewBox="0 0 260 32" fill="none" xmlns="http://www.w3.org/2000/svg">
<rect x="0.5" y="0.5" width="55" height="31" rx="5.5" fill="white"/>
<rect x="0.5" y="0.5" width="55" height="31" rx="5.5" stroke="#F4F4F4"/>
<circle cx="22" cy="16" r="9" fill="#E80B26"/>
<circle cx="34" cy="16" r="9" fill="#F59D31"/>
<path d="M28 22.7083C29.8413 21.0603 31 18.6655 31 16C31 13.3345 29.8413 10.9397 28 9.29175C26.1587 10.9397 25 13.3345 25 16C25 18.6655 26.1587 21.0603 28 22.7083Z" fill="#FC6020"/>
<rect x="68.5" y="0.5" width="55" height="31" rx="5.5" fill="white"/>
<rect x="68.5" y="0.5" width="55" height="31" rx="5.5" stroke="#F4F4F4"/>
<path d="M96.6038 14.0641C96.5837 15.5597 98.0129 16.3944 99.0895 16.8907C100.196 17.3999 100.567 17.7263 100.563 18.1816C100.554 18.8785 99.6806 19.1861 98.8625 19.198C97.4355 19.219 96.6059 18.8336 95.9462 18.5421L95.4322 20.8175C96.094 21.1061 97.3194 21.3577 98.5902 21.3687C101.573 21.3687 103.525 19.9758 103.535 17.8162C103.547 15.0755 99.5275 14.9237 99.5549 13.6986C99.5644 13.3272 99.9391 12.9308 100.76 12.83C101.167 12.7791 102.289 12.7401 103.561 13.2943L104.06 11.0927C103.376 10.8571 102.497 10.6314 101.402 10.6314C98.5944 10.6314 96.6196 12.0432 96.6038 14.0641ZM108.857 10.8211C108.312 10.8211 107.853 11.1217 107.648 11.583L103.387 21.2069H106.368L106.961 19.6563H110.604L110.948 21.2069H113.575L111.283 10.8211H108.857ZM109.274 13.6268L110.134 17.5267H107.778L109.274 13.6268ZM92.9898 10.8211L90.6403 21.2069H93.4806L95.8291 10.8211H92.9898ZM88.7879 10.8211L85.8314 17.8901L84.6356 11.8795C84.4952 11.2085 83.9411 10.8211 83.3257 10.8211H78.4926L78.425 11.1227C79.4172 11.3264 80.5445 11.6548 81.2274 12.0063C81.6454 12.221 81.7646 12.4087 81.9018 12.9189L84.1669 21.2069H87.1687L91.7707 10.8211H88.7879Z" fill="url(#paint0_linear_2002_2596)"/>
<rect x="136.5" y="0.5" width="55" height="31" rx="5.5" fill="white"/>
<rect x="136.5" y="0.5" width="55" height="31" rx="5.5" stroke="#F4F4F4"/>
<path d="M173.701 18.4183C172.365 23.7783 166.934 27.0365 161.582 25.7004C156.222 24.3643 152.963 18.934 154.3 13.5817C155.636 8.22169 161.058 4.96347 166.419 6.29958C171.771 7.62787 175.037 13.0582 173.701 18.4183Z" fill="url(#paint1_linear_2002_2596)"/>
<path d="M168.761 14.754C168.957 13.4259 167.949 12.7072 166.558 12.2306L167.011 10.4259L165.917 10.1525L165.48 11.9103C165.191 11.84 164.894 11.7697 164.597 11.7072L165.035 9.94153L163.941 9.66809L163.496 11.465C163.253 11.4103 163.019 11.3556 162.792 11.3009V11.2931L161.277 10.9181L160.988 12.09C160.988 12.09 161.8 12.2775 161.785 12.2853C162.23 12.3947 162.308 12.6915 162.292 12.9259L161.777 14.9806C161.808 14.9884 161.847 14.9962 161.894 15.0197C161.855 15.0118 161.816 15.004 161.777 14.9884L161.058 17.8634C161.003 17.9962 160.863 18.1993 160.558 18.1212C160.566 18.1368 159.761 17.9259 159.761 17.9259L159.214 19.1837L160.644 19.5431C160.91 19.6134 161.167 19.6759 161.425 19.7462L160.972 21.5665L162.066 21.84L162.519 20.0353C162.816 20.1134 163.113 20.1915 163.394 20.2618L162.949 22.0587L164.042 22.3322L164.496 20.5118C166.371 20.8634 167.777 20.7228 168.363 19.0275C168.839 17.6681 168.339 16.879 167.355 16.3634C168.082 16.1993 168.621 15.7228 168.761 14.754ZM166.253 18.2697C165.917 19.629 163.621 18.8947 162.878 18.7072L163.48 16.2931C164.222 16.4806 166.613 16.8478 166.253 18.2697ZM166.597 14.7306C166.285 15.9728 164.378 15.34 163.761 15.1837L164.308 12.9962C164.925 13.1525 166.917 13.4415 166.597 14.7306Z" fill="white"/>
<rect x="204.5" y="0.5" width="55" height="31" rx="5.5" fill="white"/>
<rect x="204.5" y="0.5" width="55" height="31" rx="5.5" stroke="#F4F4F4"/>
<mask id="mask0_2002_2596" style="mask-type:luminance" maskUnits="userSpaceOnUse" x="222" y="6" width="20" height="20">
<path d="M222 6H242V26H222V6Z" fill="white"/>
</mask>
<g mask="url(#mask0_2002_2596)">
<path d="M223.951 6.34082H240.049C240.261 6.34081 240.47 6.38243 240.665 6.46333C240.861 6.54423 241.038 6.6628 241.188 6.8123C241.337 6.96179 241.456 7.13926 241.537 7.33459C241.618 7.52992 241.659 7.73927 241.659 7.9507V24.0495C241.659 24.2609 241.618 24.4702 241.537 24.6656C241.456 24.8609 241.337 25.0383 241.188 25.1878C241.038 25.3373 240.861 25.4559 240.665 25.5367C240.47 25.6176 240.261 25.6593 240.049 25.6592H223.95C223.524 25.6592 223.114 25.4897 222.812 25.1878C222.51 24.886 222.341 24.4766 222.341 24.0497V7.95058C222.341 7.52364 222.51 7.11419 222.812 6.8123C223.114 6.51042 223.524 6.34082 223.951 6.34082Z" fill="#FDB913"/>
<path d="M240.05 6.34073C240.476 6.34085 240.886 6.51052 241.188 6.81244C241.49 7.11436 241.659 7.52379 241.659 7.95072V24.0494C241.659 24.4763 241.49 24.8857 241.188 25.1876C240.886 25.4895 240.476 25.6592 240.05 25.6593H223.951C223.739 25.6593 223.53 25.6177 223.335 25.5368C223.139 25.4559 222.962 25.3373 222.812 25.1878C222.663 25.0383 222.544 24.8609 222.463 24.6655C222.383 24.4702 222.341 24.2608 222.341 24.0494V7.95072C222.341 7.73929 222.383 7.52992 222.463 7.33458C222.544 7.13923 222.663 6.96173 222.812 6.81222C222.962 6.66271 223.139 6.54412 223.335 6.46322C223.53 6.38232 223.739 6.3407 223.951 6.34073H240.05ZM240.05 6H223.951C223.434 6.00055 222.938 6.20625 222.572 6.57196C222.206 6.93768 222.001 7.43354 222 7.95072V24.0494C222.001 24.5665 222.207 25.0624 222.572 25.428C222.938 25.7937 223.434 25.9994 223.951 26H240.05C240.567 25.9994 241.062 25.7937 241.428 25.428C241.794 25.0623 241.999 24.5665 242 24.0494V7.95072C241.999 7.43357 241.794 6.93773 241.428 6.57201C241.062 6.2063 240.567 6.00058 240.05 6Z" fill="white"/>
<path d="M233.127 16.2085L233.126 12.7497L234.029 12.5355V12.989C234.029 12.989 234.262 12.3927 234.805 12.2543C234.886 12.2282 234.972 12.2224 235.056 12.2374V13.12C234.894 13.1221 234.733 13.1555 234.583 13.2184C234.25 13.3502 234.082 13.6376 234.082 14.0765L234.082 15.9864L233.127 16.2085ZM228.368 17.3333C228.368 17.3333 228.221 17.1132 228.221 16.3349V14.6129L227.757 14.7234V14.0138L228.222 13.9039V13.1304L229.182 12.9037V13.6771L229.861 13.516V14.2247L229.182 14.3857C229.182 14.3857 229.181 15.7967 229.182 16.1392C229.182 16.9367 229.394 17.0898 229.394 17.0898L228.368 17.3333ZM229.961 15.2756C229.961 14.6607 230.049 14.2121 230.237 13.8679C230.46 13.4593 230.827 13.1931 231.361 13.0714C232.414 12.8319 232.795 13.4553 232.78 14.2912C232.774 14.5902 232.776 14.7358 232.776 14.7358L230.92 15.1719V15.2017C230.92 15.7859 231.043 16.063 231.413 15.9844C231.732 15.917 231.821 15.7168 231.847 15.4691C231.851 15.4292 231.853 15.3276 231.853 15.3276L232.722 15.1193C232.722 15.1193 232.724 15.1905 232.723 15.2704C232.715 15.6023 232.619 16.4256 231.411 16.7112C230.266 16.9828 229.961 16.2839 229.961 15.2755M231.4 13.7157C231.092 13.7855 230.931 14.0871 230.924 14.5867L231.858 14.3644C231.859 14.3418 231.859 14.292 231.859 14.214C231.858 13.8368 231.741 13.6376 231.4 13.7157ZM238.306 13.253C238.27 12.1996 238.543 11.3635 239.718 11.0973C240.467 10.9271 240.752 11.122 240.896 11.3103C241.034 11.49 241.088 11.7324 241.088 12.0718L241.088 12.1342L240.169 12.3527L240.168 12.2247C240.169 11.8221 240.057 11.669 239.765 11.7422C239.417 11.8296 239.277 12.1596 239.277 12.8158C239.277 13.0488 239.278 13.0906 239.278 13.122C239.278 13.7889 239.369 14.0942 239.769 14.0103C240.117 13.9384 240.165 13.6332 240.17 13.3655C240.171 13.3235 240.173 13.189 240.173 13.189L241.091 12.9721C241.091 12.9721 241.092 13.04 241.092 13.1154C241.089 13.9899 240.629 14.5409 239.765 14.7419C238.575 15.0208 238.342 14.3333 238.306 13.253M235.127 14.7278C235.127 13.9265 235.596 13.6731 236.303 13.3808C236.938 13.118 236.952 12.9875 236.955 12.7591C236.958 12.5669 236.869 12.4025 236.553 12.4831C236.447 12.5044 236.352 12.5607 236.283 12.6428C236.213 12.7249 236.173 12.8281 236.17 12.9356C236.165 12.9947 236.163 13.0539 236.164 13.1132L235.273 13.3235C235.267 13.146 235.288 12.9686 235.335 12.7972C235.477 12.3181 235.9 11.9957 236.629 11.8269C237.577 11.6085 237.893 12.0244 237.894 12.6714V14.2033C237.894 14.9442 238.031 15.0528 238.031 15.0528L237.157 15.2597C237.109 15.1586 237.069 15.0535 237.04 14.9456C237.04 14.9456 236.848 15.428 236.188 15.5832C235.494 15.7467 235.127 15.317 235.127 14.7278ZM236.949 13.6336C236.801 13.737 236.646 13.8281 236.483 13.9061C236.192 14.0485 236.06 14.2242 236.06 14.4948C236.06 14.7291 236.205 14.883 236.469 14.8179C236.752 14.7465 236.949 14.4824 236.949 14.1155V13.6336ZM223.349 19.7579C223.249 19.7578 223.151 19.7307 223.065 19.6797C222.979 19.6286 222.909 19.5553 222.861 19.4676C222.814 19.3799 222.791 19.2809 222.795 19.1812C222.798 19.0814 222.829 18.9846 222.883 18.9009L222.89 18.8928L222.9 18.8901L224.206 18.5818V19.5735L224.186 19.5782C223.945 19.6361 223.704 19.6921 223.462 19.7461C223.425 19.754 223.387 19.758 223.349 19.7579ZM223.349 21.0265C223.202 21.0265 223.061 20.9682 222.957 20.8644C222.853 20.7605 222.794 20.6197 222.794 20.4727C222.794 20.3657 222.825 20.2609 222.883 20.1713L222.89 20.1621L222.9 20.1593L224.206 19.8512V20.8429L224.186 20.8481C223.889 20.9193 223.535 21.0012 223.462 21.0158C223.425 21.0231 223.387 21.0266 223.349 21.0265ZM223.349 22.2976C223.202 22.2975 223.061 22.2391 222.957 22.1351C222.853 22.0312 222.794 21.8903 222.794 21.7433C222.794 21.6362 222.825 21.5315 222.883 21.4419L222.89 21.4319L224.206 21.1217V22.1133L224.186 22.1187C223.873 22.1939 223.525 22.2724 223.462 22.2862C223.425 22.2938 223.387 22.2976 223.349 22.2976ZM224.206 12.7551V18.3036L223.194 18.5428L223.194 12.9942L224.206 12.7551ZM225.714 18.0707C225.715 17.988 225.7 17.9059 225.669 17.8292C225.638 17.7525 225.592 17.6827 225.534 17.6238C225.476 17.565 225.407 17.5182 225.331 17.4863C225.255 17.4544 225.173 17.438 225.09 17.438C225.007 17.438 224.926 17.4544 224.849 17.4863C224.773 17.5182 224.704 17.565 224.646 17.6238C224.588 17.6827 224.542 17.7525 224.511 17.8292C224.48 17.9059 224.465 17.988 224.466 18.0707L224.467 23.2568C224.468 23.7046 224.646 24.1339 224.962 24.4507C225.279 24.7675 225.708 24.9459 226.156 24.9467C226.628 24.9467 227.923 24.9444 227.923 24.9444L227.923 22.781L227.924 20.3683C227.924 20.2338 227.891 20.1014 227.827 19.9827C227.764 19.8641 227.673 19.7629 227.561 19.6881L225.986 18.6185L225.986 21.0472C225.986 21.0649 225.982 21.0823 225.976 21.0986C225.969 21.1149 225.959 21.1297 225.946 21.1422C225.934 21.1547 225.919 21.1645 225.903 21.1713C225.887 21.178 225.869 21.1815 225.851 21.1815C225.834 21.1815 225.816 21.178 225.8 21.1713C225.784 21.1645 225.769 21.1547 225.757 21.1422C225.744 21.1297 225.734 21.1149 225.727 21.0986C225.721 21.0823 225.717 21.0649 225.717 21.0472C225.717 21.0212 225.714 18.3914 225.714 18.0707ZM226.557 14.2015C226.366 14.2459 226.186 14.3311 226.031 14.4512C225.875 14.5713 225.748 14.7236 225.657 14.8976V14.5077L224.746 14.7232L224.747 17.2135C224.907 17.1503 225.081 17.1326 225.25 17.1622C225.419 17.1918 225.577 17.2676 225.706 17.3812V15.7734C225.706 15.3881 225.898 15.0804 226.171 15.0201C226.377 14.9749 226.549 15.0485 226.549 15.4154L226.55 17.7614L227.51 17.5365V15.0547C227.51 14.453 227.278 14.0324 226.557 14.2015ZM240.497 10.6502C240.379 10.6503 240.265 10.6156 240.167 10.5505C240.069 10.4853 239.993 10.3927 239.948 10.2843C239.903 10.1759 239.892 10.0567 239.914 9.94156C239.937 9.82646 239.994 9.72073 240.077 9.63774C240.16 9.55476 240.265 9.49825 240.381 9.47537C240.496 9.45249 240.615 9.46427 240.723 9.50921C240.832 9.55416 240.924 9.63024 240.99 9.72785C241.055 9.82546 241.089 9.94019 241.089 10.0575C241.089 10.2147 241.027 10.3653 240.916 10.4764C240.805 10.5875 240.654 10.65 240.497 10.6502ZM240.497 9.53881C240.394 9.53879 240.294 9.56918 240.209 9.62615C240.123 9.68312 240.057 9.7641 240.018 9.85885C239.978 9.95361 239.968 10.0579 239.988 10.1585C240.008 10.2591 240.057 10.3515 240.13 10.4241C240.202 10.4966 240.295 10.546 240.395 10.566C240.496 10.5861 240.6 10.5758 240.695 10.5366C240.79 10.4974 240.871 10.4309 240.928 10.3456C240.985 10.2604 241.015 10.1601 241.015 10.0575C241.015 9.92004 240.961 9.78821 240.863 9.69096C240.766 9.59371 240.634 9.539 240.497 9.53881Z" fill="#231F20"/>
<path d="M240.281 9.7042H240.536C240.561 9.70152 240.587 9.70451 240.61 9.71294C240.634 9.72137 240.655 9.73502 240.673 9.75289C240.691 9.77075 240.704 9.79237 240.712 9.81612C240.72 9.83988 240.723 9.86517 240.72 9.89011C240.72 9.9841 240.678 10.0563 240.6 10.0686V10.0699C240.671 10.0773 240.709 10.1169 240.713 10.2187C240.714 10.2646 240.715 10.3215 240.717 10.3658C240.717 10.3783 240.72 10.3905 240.726 10.4015C240.732 10.4124 240.741 10.4216 240.751 10.4283H240.621C240.608 10.4092 240.601 10.3869 240.601 10.3641C240.597 10.3208 240.598 10.28 240.596 10.2274C240.594 10.1484 240.57 10.1138 240.491 10.1138H240.396V10.4282H240.281V9.7042ZM240.489 10.0267C240.504 10.0281 240.52 10.026 240.535 10.0206C240.55 10.0152 240.563 10.0066 240.574 9.99533C240.585 9.9841 240.594 9.97056 240.599 9.95568C240.604 9.94079 240.606 9.92495 240.604 9.90928C240.604 9.83204 240.571 9.79142 240.495 9.79142H240.396V10.0267H240.489Z" fill="#231F20"/>
</g>
<defs>
<linearGradient id="paint0_linear_2002_2596" x1="94.585" y1="21.5841" x2="94.879" y2="10.5559" gradientUnits="userSpaceOnUse">
<stop stop-color="#222357"/>
<stop offset="1" stop-color="#254AA5"/>
</linearGradient>
<linearGradient id="paint1_linear_2002_2596" x1="163.995" y1="5.99529" x2="163.995" y2="25.998" gradientUnits="userSpaceOnUse">
<stop stop-color="#F9AA4B"/>
<stop offset="1" stop-color="#F7931A"/>
</linearGradient>
</defs>
</svg>
